<?xml version="1.0" standalone="no"?>
<!DOCTYPE svg PUBLIC "-//W3C//DTD SVG 20010904//EN"
 "http://www.w3.org/TR/2001/REC-SVG-20010904/DTD/svg10.dtd">
<svg version="1.0" xmlns="http://www.w3.org/2000/svg"
 width="400.000000pt" height="400.000000pt" viewBox="0 0 400.000000 400.000000"
 preserveAspectRatio="xMidYMid meet">

<g transform="translate(0.000000,400.000000) scale(0.100000,-0.100000)"
fill="#000000" stroke="none">
<path d="M0 2000 l0 -2000 2000 0 2000 0 0 2000 0 2000 -2000 0 -2000 0 0
-2000z m2090 1346 c0 -17 -9 -79 -19 -138 -16 -89 -38 -155 -140 -407 -66
-165 -121 -305 -121 -311 0 -6 45 -10 129 -10 l128 0 7 -61 c3 -34 6 -107 6
-162 l0 -100 109 106 c177 171 309 236 495 245 180 8 303 -33 405 -136 108
-107 158 -243 168 -449 l6 -123 -157 0 -156 0 0 53 c-1 171 -60 311 -151 357
-183 94 -377 3 -636 -299 l-63 -74 0 -574 0 -573 -155 0 -155 0 0 873 c0 504
-4 866 -9 857 -5 -8 -43 -98 -84 -200 -218 -539 -550 -1346 -651 -1584 -10
-23 -20 -36 -25 -30 -9 9 -51 179 -71 282 -14 74 4 260 40 437 28 133 128 471
203 690 20 55 42 125 51 155 31 103 110 280 126 280 8 0 47 -9 87 -19 l72 -19
14 22 c32 50 115 266 203 529 72 217 92 290 88 315 -4 17 -3 48 0 67 6 30 15
39 63 64 l57 28 68 -30 c63 -28 68 -32 68 -61z"/>
<path d="M1940 3325 c-26 -31 18 -71 47 -42 19 19 8 57 -16 57 -10 0 -24 -7
-31 -15z"/>
<path d="M1794 2895 c-10 -25 4 -45 30 -45 25 0 39 20 30 45 -4 8 -17 15 -30
15 -14 0 -27 -7 -30 -15z"/>
<path d="M1672 2558 c-27 -27 5 -73 38 -53 16 10 12 52 -6 59 -20 8 -18 8 -32
-6z"/>
</g>
</svg>
