<svg width="32" height="32" viewBox="0 0 32 32" fill="none" xmlns="http://www.w3.org/2000/svg">
<rect width="32" height="32" rx="16" fill="#1E293B" fill-opacity="0.4"/>
<g clip-path="url(#clip0_94_426)">
<path d="M21.2741 15.2804H12.7186C12.6933 15.2802 12.6686 15.2723 12.6479 15.2578C12.6271 15.2433 12.6113 15.2229 12.6024 15.1992C12.5934 15.1755 12.5919 15.1497 12.5979 15.1251C12.6039 15.1005 12.6172 15.0783 12.6361 15.0614L16.9546 11.2614C17.0904 11.1334 17.1711 10.9577 17.1799 10.7713C17.1886 10.585 17.1247 10.4024 17.0015 10.2623C16.8783 10.1221 16.7055 10.0353 16.5196 10.02C16.3336 10.0047 16.149 10.0623 16.0046 10.1804L10.4141 15.0999C10.2864 15.2126 10.1841 15.3511 10.1141 15.5062C10.044 15.6614 10.0078 15.8297 10.0078 15.9999C10.0078 16.1702 10.044 16.3385 10.1141 16.4937C10.1841 16.6488 10.2864 16.7873 10.4141 16.8999L16.0036 21.8184C16.1481 21.9352 16.3321 21.9915 16.5172 21.9757C16.7023 21.9599 16.8741 21.8732 16.9967 21.7338C17.1194 21.5943 17.1834 21.4128 17.1753 21.2272C17.1673 21.0416 17.0878 20.8663 16.9536 20.7379L12.6351 16.9379C12.6162 16.9211 12.6029 16.8989 12.5969 16.8743C12.5909 16.8497 12.5924 16.8239 12.6014 16.8002C12.6103 16.7765 12.6261 16.7561 12.6469 16.7416C12.6676 16.7271 12.6923 16.7192 12.7176 16.7189H21.2741C21.4617 16.714 21.64 16.636 21.7709 16.5016C21.9018 16.3671 21.9751 16.1869 21.9751 15.9992C21.9751 15.8115 21.9018 15.6313 21.7709 15.4968C21.64 15.3624 21.4617 15.2844 21.2741 15.2794V15.2804Z" fill="#64748B"/>
</g>
<defs>
<clipPath id="clip0_94_426">
<rect width="12" height="12" fill="white" transform="translate(10 10)"/>
</clipPath>
</defs>
</svg>
